<svg xmlns="http://www.w3.org/2000/svg" width="840" height="430" viewBox="0 0 840 430" role="img" aria-labelledby="title desc">
  <title id="title">Đồ thị Web gốc trong Hình 5.1</title>
  <desc id="desc">Đồ thị có hướng: A trỏ đến B, C, D; B trỏ đến A, D; C trỏ đến A; D trỏ đến B, C. Không nút nào được đánh dấu là tập dịch chuyển hoặc tập tin cậy.</desc>
  <defs><marker id="arrow" markerWidth="10" markerHeight="8" refX="9" refY="4" orient="auto"><path d="M0,0 L10,4 L0,8 Z" fill="#B15A2B"/></marker></defs>
  <g fill="none" stroke="#B15A2B" stroke-width="5" marker-end="url(#arrow)">
    <path d="M303 125 L507 125"/><path d="M530 160 C450 225 365 225 290 160"/>
    <path d="M255 178 L255 272"/><path d="M290 165 L530 295"/>
    <path d="M565 178 L565 272"/><path d="M517 330 L303 330"/>
    <path d="M255 282 L255 178"/><path d="M600 295 C660 235 660 205 600 165"/>
  </g>
  <g fill="#edf4ff" stroke="#2F3E7A" stroke-width="5">
    <circle cx="255" cy="130" r="48"/><circle cx="565" cy="130" r="48"/>
    <circle cx="255" cy="330" r="48"/><circle cx="565" cy="330" r="48"/>
  </g>
  <g font-family="Arial,sans-serif" font-size="38" font-weight="700" fill="#2F3E7A" text-anchor="middle"><text x="255" y="143">A</text><text x="565" y="143">B</text><text x="255" y="343">C</text><text x="565" y="343">D</text></g>
</svg>
