<svg xmlns="http://www.w3.org/2000/svg" role="img" aria-label="R0 lấy phần 0 từ cả M1 và M2, nhận mèo mèo chim; R1 lấy phần 1 từ cả hai Map, nhận chó chó. Mỗi từ là một cặp từ và số 1; các đường nối thể hiện phần trung gian đi tới đúng Reduce." font-family="Arial, sans-serif" viewBox="0 0 1120 390"><defs><marker id="arr" markerWidth="8" markerHeight="8" refX="7" refY="4" orient="auto"><path d="M0,0 L8,4 L0,8 Z" fill="#2f3e7a"/></marker></defs><rect x="20" y="40" width="320" height="100" rx="7" fill="#edf4ff" stroke="#2f3e7a" stroke-width="2"/><text x="180.0" y="82.0" text-anchor="middle" font-size="23" fill="#2f3e7a">Đĩa của M₁</text><text x="180.0" y="116.0" text-anchor="middle" font-size="23" fill="#2f3e7a">R₀: mèo, mèo | R₁: chó</text><rect x="20" y="230" width="320" height="100" rx="7" fill="#edf4ff" stroke="#2f3e7a" stroke-width="2"/><text x="180.0" y="272.0" text-anchor="middle" font-size="23" fill="#2f3e7a">Đĩa của M₂</text><text x="180.0" y="306.0" text-anchor="middle" font-size="23" fill="#2f3e7a">R₀: chim | R₁: chó</text><rect x="785" y="40" width="315" height="100" rx="7" fill="#edf4ff" stroke="#2f3e7a" stroke-width="2"/><text x="942.5" y="82.0" text-anchor="middle" font-size="24" fill="#2f3e7a">R₀ nhận</text><text x="942.5" y="116.0" text-anchor="middle" font-size="24" fill="#2f3e7a">mèo, mèo, chim</text><rect x="785" y="230" width="315" height="100" rx="7" fill="#edf4ff" stroke="#2f3e7a" stroke-width="2"/><text x="942.5" y="272.0" text-anchor="middle" font-size="24" fill="#2f3e7a">R₁ nhận</text><text x="942.5" y="306.0" text-anchor="middle" font-size="24" fill="#2f3e7a">chó, chó</text><path d="M342,73 L779,73" stroke="#2f3e7a" stroke-width="2.5" fill="none" marker-end="url(#arr)"/><text x="560.5" y="63.0" text-anchor="middle" font-size="22" fill="#2f3e7a">phần 0</text><path d="M342,105 L779,264" stroke="#2f3e7a" stroke-width="2.5" fill="none" marker-end="url(#arr)"/><text x="435" y="120" text-anchor="middle" font-size="22" fill="#2f3e7a">phần 1</text><path d="M342,261 L779,106" stroke="#2f3e7a" stroke-width="2.5" fill="none" marker-end="url(#arr)"/><text x="435" y="275" text-anchor="middle" font-size="22" fill="#2f3e7a">phần 0</text><path d="M342,296 L779,296" stroke="#2f3e7a" stroke-width="2.5" fill="none" marker-end="url(#arr)"/><text x="560.5" y="286.0" text-anchor="middle" font-size="22" fill="#2f3e7a">phần 1</text><text x="560" y="365" text-anchor="middle" font-size="23" fill="#2f3e7a">Mỗi từ trong hình đại diện cho một cặp (từ, 1).</text></svg>